<svg width="40" height="40" viewBox="0 0 40 40" fill="none" xmlns="http://www.w3.org/2000/svg">
<path d="M15 4.99999V1.66666H25V4.99999H15ZM18.3333 23.3333H21.6667V13.3333H18.3333V23.3333ZM20 36.6667C17.9444 36.6667 16.0067 36.2711 14.1867 35.48C12.3667 34.6889 10.7767 33.6122 9.41667 32.25C8.05667 30.8878 6.98056 29.2972 6.18833 27.4783C5.39611 25.6594 5 23.7222 5 21.6667C5 19.6111 5.39611 17.6733 6.18833 15.8533C6.98056 14.0333 8.05667 12.4433 9.41667 11.0833C10.7767 9.72332 12.3672 8.64721 14.1883 7.85499C16.0094 7.06277 17.9467 6.66666 20 6.66666C21.7222 6.66666 23.375 6.94443 24.9583 7.49999C26.5417 8.05555 28.0278 8.8611 29.4167 9.91666L31.75 7.58332L34.0833 9.91666L31.75 12.25C32.8056 13.6389 33.6111 15.125 34.1667 16.7083C34.7222 18.2917 35 19.9444 35 21.6667C35 23.7222 34.6039 25.66 33.8117 27.48C33.0194 29.3 31.9433 30.89 30.5833 32.25C29.2233 33.61 27.6328 34.6867 25.8117 35.48C23.9906 36.2733 22.0533 36.6689 20 36.6667ZM20 33.3333C23.2222 33.3333 25.9722 32.1944 28.25 29.9167C30.5278 27.6389 31.6667 24.8889 31.6667 21.6667C31.6667 18.4444 30.5278 15.6944 28.25 13.4167C25.9722 11.1389 23.2222 9.99999 20 9.99999C16.7778 9.99999 14.0278 11.1389 11.75 13.4167C9.47222 15.6944 8.33333 18.4444 8.33333 21.6667C8.33333 24.8889 9.47222 27.6389 11.75 29.9167C14.0278 32.1944 16.7778 33.3333 20 33.3333Z" fill="white"/>
</svg>
