<svg width="30" height="31" viewBox="0 0 30 31" fill="none" xmlns="http://www.w3.org/2000/svg">
<path d="M6.25 6.75H13.75C14.4375 6.75 15 6.1875 15 5.5C15 4.8125 14.4375 4.25 13.75 4.25H6.25C4.875 4.25 3.75 5.375 3.75 6.75V24.25C3.75 25.625 4.875 26.75 6.25 26.75H13.75C14.4375 26.75 15 26.1875 15 25.5C15 24.8125 14.4375 24.25 13.75 24.25H6.25V6.75Z" fill="#FF0000"/>
<path d="M25.8125 15.0625L22.325 11.575C22.2381 11.4857 22.1265 11.4243 22.0045 11.3988C21.8825 11.3733 21.7556 11.3848 21.6402 11.4318C21.5247 11.4787 21.4259 11.5591 21.3564 11.6626C21.2869 11.766 21.2499 11.8879 21.25 12.0125V14.25H12.5C11.8125 14.25 11.25 14.8125 11.25 15.5C11.25 16.1875 11.8125 16.75 12.5 16.75H21.25V18.9875C21.25 19.55 21.925 19.825 22.3125 19.425L25.8 15.9375C26.05 15.7 26.05 15.3 25.8125 15.0625Z" fill="#FF0000"/>
</svg>
